<svg xmlns="http://www.w3.org/2000/svg" version="1.1" xmlns:xlink="http://www.w3.org/1999/xlink" xmlns:svgjs="http://svgjs.com/svgjs" width="512" height="512" x="0" y="0" viewBox="0 0 64 64" style="enable-background:new 0 0 512 512" xml:space="preserve" class="">
	<g>
		<g id="Password">
			<path d="m39 18h-14a1 1 0 0 1 -1-1v-7a8 8 0 0 1 16 0v7a1 1 0 0 1 -1 1zm-13-2h12v-6a6 6 0 0 0 -12 0z" fill="#376cfb" data-original="#376cfb"></path>
			<rect fill="#e6ecff" height="20" rx="7" width="62" x="1" y="42" data-original="#e6ecff"></rect>
			<g fill="#4294ff">
				<path d="m43.207 47.293a.9994.9994 0 0 0 -1.414 0l-3.293 3.2929-3.293-3.2929a1 1 0 0 0 -1.414 1.414l3.2929 3.293-3.2929 3.293a1 1 0 1 0 1.414 1.414l3.293-3.2929 3.293 3.2929a1 1 0 0 0 1.414-1.414l-3.2929-3.293 3.2929-3.293a.9994.9994 0 0 0 0-1.414z" fill="#4294ff" data-original="#4294ff"></path>
				<path d="m52.9141 52 3.2929-3.293a1 1 0 0 0 -1.414-1.414l-3.293 3.2929-3.293-3.2929a1 1 0 0 0 -1.414 1.414l3.2929 3.293-3.2929 3.293a1 1 0 1 0 1.414 1.414l3.293-3.2929 3.293 3.2929a1 1 0 0 0 1.414-1.414z" fill="#4294ff" data-original="#4294ff"></path>
				<path d="m17.207 47.293a.9994.9994 0 0 0 -1.414 0l-3.293 3.2929-3.293-3.2929a1 1 0 1 0 -1.414 1.414l3.2929 3.293-3.2929 3.293a1 1 0 1 0 1.414 1.414l3.293-3.2929 3.293 3.2929a1 1 0 0 0 1.414-1.414l-3.2929-3.293 3.2929-3.293a.9994.9994 0 0 0 0-1.414z" fill="#4294ff" data-original="#4294ff"></path>
				<path d="m30.207 47.293a.9994.9994 0 0 0 -1.414 0l-3.293 3.2929-3.293-3.2929a1 1 0 0 0 -1.414 1.414l3.2929 3.293-3.2929 3.293a1 1 0 1 0 1.414 1.414l3.293-3.2929 3.293 3.2929a1 1 0 0 0 1.414-1.414l-3.2929-3.293 3.2929-3.293a.9994.9994 0 0 0 0-1.414z" fill="#4294ff" data-original="#4294ff"></path>
				<rect height="28" rx="7" width="30" x="17" y="16" fill="#4294ff" data-original="#4294ff"></rect>
			</g>
			<path d="m35.1084 23.083a5.0307 5.0307 0 0 0 -4.2944-.9458 4.9881 4.9881 0 0 0 -1.814 8.8433v4.0195a3 3 0 0 0 6 0v-4.02a4.98 4.98 0 0 0 .1084-7.8965z" fill="#376cfb" data-original="#376cfb"></path>
		</g>
	</g>
</svg>